<?xml version="1.0" encoding="UTF-8" standalone="no"?>
<!-- Created with Inkscape (http://www.inkscape.org/) -->

<svg
   width="100mm"
   height="100mm"
   viewBox="0 0 100 100"
   version="1.1"
   id="svg5"
   inkscape:version="1.1.1 (3bf5ae0d25, 2021-09-20)"
   sodipodi:docname="logo.svg"
   inkscape:export-filename="./logo.png"
   inkscape:export-xdpi="12.191999"
   inkscape:export-ydpi="12.191999"
   xmlns:inkscape="http://www.inkscape.org/namespaces/inkscape"
   xmlns:sodipodi="http://sodipodi.sourceforge.net/DTD/sodipodi-0.dtd"
   xmlns="http://www.w3.org/2000/svg"
   xmlns:svg="http://www.w3.org/2000/svg"
   xmlns:rdf="http://www.w3.org/1999/02/22-rdf-syntax-ns#"
   xmlns:cc="http://creativecommons.org/ns#"
   xmlns:dc="http://purl.org/dc/elements/1.1/">
  <title
     id="title23606">the-godfather.tech</title>
  <sodipodi:namedview
     id="namedview7"
     pagecolor="#ffffff"
     bordercolor="#666666"
     borderopacity="1.0"
     inkscape:pageshadow="2"
     inkscape:pageopacity="0.0"
     inkscape:pagecheckerboard="true"
     inkscape:document-units="mm"
     showgrid="false"
     inkscape:zoom="0.69"
     inkscape:cx="-122.46377"
     inkscape:cy="528.98551"
     inkscape:window-width="1920"
     inkscape:window-height="1011"
     inkscape:window-x="0"
     inkscape:window-y="0"
     inkscape:window-maximized="1"
     inkscape:current-layer="layer1"
     inkscape:showpageshadow="false" />
  <defs
     id="defs2">
    <symbol
       id="e">
      <path
         d="m 132.219,72.129 c 3.3,0 3.644,10.918 -2.778,14.746 0,0 -0.87,-14.746 2.778,-14.746 z m 0.515,27.676 c 0,0 7.293,-5.47 11.2,-8.332 0,0 4.425,-3.125 4.425,-8.856 V 67.781 c 0,-4.43 -4.03,-9.246 -8.199,-9.246 h -17.45 c -8.198,0 -8.98,8.985 -8.98,8.985 v 52.34 c 0,9.37 7.81,8.85 7.81,8.85 h 19.269 c 6.77,0 7.293,-8.07 7.293,-8.07 v -18.222 c 0,7.027 -4.426,12.234 -7.293,12.234 h -7.29 c -3.124,0 -4.164,-4.164 -4.164,-4.164 v -3.906 c 0,-3.906 3.383,-6.77 3.383,-6.77"
         id="path190" />
    </symbol>
  </defs>
  <g
     inkscape:label="Layer 1"
     inkscape:groupmode="layer"
     id="layer1">
    <circle
       style="fill:#122716;fill-opacity:1;stroke-width:0.257197"
       id="circle"
       cx="50"
       cy="50"
       r="50" />
    <path
       inkscape:export-ydpi="48.18"
       inkscape:export-xdpi="48.18"
       inkscape:export-filename="/home/rafael/workspace/logo-osi/3/png/logo396x412.png"
       id="open-source-logo"
       d="m 49.999999,49.999216 m 5.600003,14.587503 a 15.625,15.625 0 1 0 -11.200005,0 L 33.874998,92.011717 a 45,45 0 1 1 32.250003,0 z"
       inkscape:connector-curvature="0"
       style="text-anchor:middle;fill:#21552a;fill-opacity:1;stroke:none;stroke-width:3.75001;stroke-linejoin:round" />
    <path
       style="fill:#ffe6d5;stroke-width:0.271263"
       d="m 44.633482,93.952392 c -0.08973,-0.281441 -0.397487,-1.013365 -0.683839,-1.626486 -0.286352,-0.613117 -0.52063,-1.210827 -0.52063,-1.328237 0,-0.117412 -0.427242,-0.857139 -0.949422,-1.643842 -0.52219,-0.786695 -0.949433,-1.562265 -0.949433,-1.723473 0,-0.161223 -0.102514,-0.293108 -0.227715,-0.293108 -0.125254,0 -0.366763,-0.305176 -0.536718,-0.678163 -0.715489,-1.570351 1.364748,-0.315848 3.542119,2.136086 1.052532,1.185259 1.887482,1.858927 2.577012,2.079232 2.521988,0.805763 5.131479,2.614169 4.575089,3.170561 -0.489997,0.489996 -6.667363,0.406222 -6.826463,-0.09256 z m 13.647203,-1.378764 c -1.053258,-0.167178 -0.966532,-0.382314 1.032023,-2.560086 2.557586,-2.786962 2.965399,-3.405914 3.635911,-5.518171 0.330426,-1.040843 0.956423,-2.653157 1.391117,-3.582927 0.434707,-0.929767 0.790355,-1.817642 0.790355,-1.973058 0,-0.15542 0.281851,-0.28258 0.626294,-0.28258 0.665189,0 3.447684,-1.561318 4.44609,-2.494785 0.914491,-0.855008 1.437942,-2.763424 1.437942,-5.242506 0,-1.870872 0.08437,-2.291726 0.542529,-2.706347 0.567208,-0.513333 0.656784,-1.12407 0.372986,-2.543096 -0.242582,-1.212953 -0.749959,-1.045979 -1.129106,0.371559 -0.738568,2.761455 -4.88011,5.720094 -7.083102,5.06006 -0.571872,-0.171342 -1.391826,-0.313745 -1.822101,-0.316463 -2.349685,-0.01488 -5.906617,-4.32059 -5.467371,-6.618386 0.09093,-0.475962 0.01552,-0.700787 -0.235325,-0.700787 -0.203089,0 -0.369262,-0.180637 -0.369262,-0.401385 0,-0.936852 -2.140207,-1.610418 -5.154018,-1.622077 -3.606494,-0.01392 -3.971625,-0.229062 -3.213435,-1.893123 0.218431,-0.479392 0.681073,-0.790894 1.531259,-1.031017 1.225152,-0.346031 2.448591,-1.523551 2.12574,-2.045935 -0.436119,-0.70566 -4.053172,-0.657075 -5.71019,0.07669 -2.011289,0.890656 -3.666196,0.933502 -5.411034,0.140089 -2.304985,-1.048135 -3.445479,-0.66701 -4.03994,1.350067 -0.312465,1.06023 -0.793091,1.930828 -1.402231,2.539969 -0.899349,0.899348 -0.916573,0.956631 -0.581163,1.932275 0.411166,1.196003 1.253581,0.473615 1.795764,-1.539911 0.494181,-1.835255 1.563307,-0.415541 1.598012,2.122038 0.01762,1.293955 -0.17698,1.49677 -2.019163,2.103622 -2.086331,0.687266 -2.160033,0.765463 -1.650393,1.750993 1.551085,2.999474 0.532891,6.453783 -1.704723,5.783384 -3.723199,-1.115501 -3.820444,-9.220794 -0.103522,-8.62689 1.222024,0.195262 1.322355,-1.055914 0.118325,-1.47564 -0.642653,-0.224028 -0.861676,-0.575443 -1.386019,-2.223805 -0.342515,-1.076756 -0.869864,-2.227138 -1.17189,-2.556406 -0.523932,-0.571185 -0.530699,-0.671915 -0.147498,-2.193192 0.40165,-1.594507 0.40165,-1.594507 -1.114229,-1.655838 -2.622606,-0.106115 -3.773599,-1.164095 -3.404849,-3.129714 0.316958,-1.689476 0.745704,-2.023081 1.696572,-1.320087 0.61321,0.453373 1.316017,0.628804 2.938246,0.733429 1.799885,0.116101 1.909476,0.101714 0.703055,-0.09256 -1.715886,-0.276284 -2.232868,-0.654253 -2.232868,-1.632474 0,-1.012944 0.213774,-1.140709 1.122421,-0.67083 0.759298,0.39265 3.964758,-0.60183 4.967448,-1.541132 0.141737,-0.132743 1.383248,-0.241406 2.758892,-0.241406 2.914464,0 2.66052,0.355167 2.961061,-4.141199 0.142826,-2.136703 0.08614,-2.923926 -0.293273,-4.068954 -0.2587,-0.780836 -0.505291,-1.558605 -0.548003,-1.728384 -0.120373,-0.478487 -10.342364,-0.80288 -12.703267,-0.403136 -2.112112,0.357622 -2.243069,0.320048 -1.742684,-0.500001 0.7241,-1.186668 2.965682,-2.535697 4.182816,-2.517297 1.254186,0.01888 1.38426,-0.51572 0.352605,-1.44936 -0.550109,-0.497842 -0.693303,-1.596828 -0.244226,-1.874373 0.464655,-0.28717 0.30206,-1.14848 -0.548128,-2.903586 -1.213248,-2.504619 -1.383152,-3.413403 -1.191327,-6.372523 0.172378,-2.659489 0.172378,-2.659489 2.922592,-5.317226 4.159279,-4.019455 4.104642,-3.985603 7.152449,-4.432154 1.457819,-0.213594 3.138867,-0.6115843 3.735645,-0.8844225 0.596786,-0.272837 1.547765,-0.580306 2.113293,-0.683263 1.471591,-0.2679124 3.192161,-1.0636338 4.061756,-1.878447 1.641586,-1.53819 6.381216,-1.9181586 8.744453,-0.7010384 6.585272,3.391581 7.761796,4.2712819 9.561065,7.1488449 1.355204,2.167419 2.943232,3.797506 4.949528,5.080641 1.120076,0.716337 2.280615,1.542446 2.579014,1.835799 0.421179,0.414073 0.785195,0.501676 1.627579,0.391676 2.282409,-0.298044 2.583451,1.16818 0.423554,2.062845 -1.600384,0.662899 -1.578382,2.543395 0.04481,3.830049 0.438764,0.347788 0.488819,0.538186 0.255914,0.973385 -0.662456,1.237776 0,1.984194 1.038913,1.171261 0.84053,-0.657474 1.065981,-0.667526 1.521243,-0.06782 0.333675,0.439588 0.36097,0.429554 0.368974,-0.135641 0.0128,-0.896349 0.735669,-0.751136 1.254372,0.25194 0.3208,0.620332 0.401499,1.237266 0.287656,2.198687 -0.145306,1.22668 -0.08008,1.438854 0.794442,2.584158 1.122299,1.46983 1.231999,3.535973 0.360653,6.79189 -0.548116,2.04814 -1.189791,7.451888 -0.956935,8.058713 0.327433,0.853273 -1.644273,3.294133 -3.757494,4.651622 -2.020671,1.298025 -2.025093,1.303499 -2.036627,2.521535 -0.0061,0.671379 -0.152155,3.906201 -0.323967,7.188491 -0.368566,7.041014 -0.385329,8.716403 -0.107123,10.714909 0.506097,3.635509 -4.457621,10.874449 -8.55229,12.47237 -2.009188,0.78409 -2.009188,0.78409 -2.010716,2.996728 -0.0032,2.613051 -0.648479,3.51613 -2.522795,3.523059 -0.551155,0.0022 -1.246242,0.04726 -1.544629,0.100386 -0.298399,0.05322 -0.878217,0.04338 -1.288513,-0.02175 z m -0.02604,-32.548174 c -0.218715,-0.420196 -0.714148,-1.130193 -1.101006,-1.577775 -0.386845,-0.447593 -0.703522,-0.92796 -0.703699,-1.067498 -2.55e-4,-0.234412 -5.398842,-5.578471 -5.635347,-5.578471 -0.140169,0 1.677492,2.235883 4.762881,5.858733 1.385226,1.626537 2.604583,3.323548 2.709652,3.77113 0.191022,0.813791 0.191022,0.813791 0.278116,0.08582 0.04788,-0.40038 -0.09186,-1.071765 -0.310535,-1.49195 z M 39.273768,51.629899 c 0.741017,-1.759417 0.73178,-1.71607 0.671494,-3.151161 -0.02349,-0.559477 -0.151195,-1.017241 -0.283809,-1.017241 -0.132599,0 -0.326611,0.457764 -0.431169,1.017241 -0.104547,0.559479 -0.289077,1.139305 -0.410057,1.2885 -0.120982,0.149194 -0.512173,1.003678 -0.869307,1.898843 -1.293002,3.240921 -0.04297,3.206729 1.322848,-0.0362 z M 76.7242,51.090516 c 1.118819,-0.770545 1.424621,-1.136221 1.417865,-1.695392 -0.0072,-0.615683 -0.05372,-0.654232 -0.339078,-0.282537 -1.156595,1.506428 -2.358994,0.933939 -2.373182,-1.129926 -0.0128,-1.848472 -0.434831,-0.718228 -0.626806,1.678259 -0.225146,2.81077 -0.157388,2.861181 1.921201,1.429596 z M 55.751691,47.045687 c -0.287488,-0.225607 -0.986422,-0.657103 -1.553177,-0.958875 -0.998315,-0.531558 -1.511319,-1.192343 -1.18163,-1.522027 0.08837,-0.08837 0.46536,0.03897 0.837762,0.282964 0.83127,0.544674 0.967433,0.551643 0.967433,0.04954 0,-0.249558 0.640821,-0.586333 1.747413,-0.918317 1.03179,-0.309543 2.234766,-0.92357 2.937417,-1.499345 0.65448,-0.536308 1.668644,-1.075124 2.253711,-1.197366 1.063738,-0.222256 1.063738,-0.222256 -1.242005,-0.942755 -2.700187,-0.84375 -3.357648,-1.24703 -3.105264,-1.904699 0.339136,-0.883806 3.8498,-0.114452 5.935051,1.300644 1.78231,1.209502 3.324151,0.169427 2.473062,-1.668245 -1.587217,-3.427155 -5.285759,-4.711428 -13.568266,-4.711428 -7.520248,0 -10.052549,0.920344 -8.798998,3.197925 3.722534,6.763507 3.464149,6.413613 5.376094,7.280393 2.504794,1.135565 2.596922,1.18943 3.537629,2.068601 0.807505,0.754675 3.491081,1.928277 3.790671,1.657765 0.06367,-0.05753 -0.119398,-0.28917 -0.406903,-0.514787 z m 22.179165,-4.879988 c -0.187014,-1.892686 -0.187014,-1.892686 -1.204248,-1.97688 -1.322539,-0.109427 -1.283918,-0.41481 0.159485,-1.26069 1.654135,-0.969398 1.978103,-0.905063 2.156948,0.428304 0.179019,1.334599 0.735287,2.085654 0.735287,0.99274 0,-0.796942 0.7504,-3.91031 1.104211,-4.581324 0.274511,-0.520638 -0.688095,-1.05574 -1.899198,-1.05574 -0.823777,0 -2.507912,1.581061 -2.85754,2.682649 -0.337811,1.064304 -0.958947,0.462179 -0.958947,-0.929574 0,-0.354159 -0.305174,-1.09362 -0.678161,-1.643252 -0.372984,-0.549624 -0.67816,-1.232485 -0.67816,-1.517467 0,-1.005966 -0.802481,-2.158478 -1.439786,-2.067783 -0.327085,0.04655 -0.589178,0.2067 -0.582433,0.355897 0.218746,4.838575 1.217429,8.273535 2.405436,8.273535 0.793552,0 1.50199,0.731967 0.923346,0.95401 -0.321495,0.123365 -0.423897,0.852668 -0.256474,1.826446 0.01931,0.111908 0.642975,0.203446 1.386106,0.203446 1.221602,0 1.367793,0.06624 1.524524,0.690793 0.292019,1.163388 0.355954,0.612296 0.159596,-1.37511 z M 37.562912,85.471232 c -1.389653,-1.019434 -3.085598,-2.699446 -3.085598,-3.056614 0,-0.15678 -0.19908,-0.70456 -0.442405,-1.217327 -0.639016,-1.346625 -0.300172,-1.399567 1.177521,-0.18397 0.714647,0.587887 1.879184,1.401934 2.587859,1.808999 1.229711,0.706333 1.288499,0.794546 1.288499,1.933351 0,1.539786 -0.245424,1.654883 -1.525876,0.715561 z m 5.253574,-5.151114 c -3.07844,-0.705082 -2.902917,-3.814352 0.239385,-4.240642 0.727405,-0.09863 1.981386,-0.338352 2.786616,-0.532606 1.821097,-0.439316 11.483322,-0.547367 12.250137,-0.137 0.877839,0.46981 0.737,2.521332 -0.218829,3.186976 -1.128625,0.785998 -2.424899,1.145018 -4.13414,1.145018 -0.849191,0 -2.14322,0.181767 -2.875608,0.403956 -1.694322,0.513989 -2.511485,0.512545 -3.754138,-0.0072 -1.004098,-0.41953 -2.715287,-0.319879 -3.021745,0.175995 -0.160448,0.259603 -0.159901,0.259603 -1.271678,0.005 z M 37.29123,73.247207 c -1.527076,-0.684413 -1.652095,-1.003665 -0.758323,-1.936557 1.320178,-1.377965 2.73498,-0.979781 2.887239,0.812589 0.115973,1.365179 -0.667648,1.778889 -2.128916,1.123968 z m 15.803092,-0.245831 c -0.327544,-0.363175 -0.467028,-0.835025 -0.39398,-1.332741 0.113076,-0.770506 0.113076,-0.770506 -1.256144,-0.381608 -3.667212,1.041599 -12.084139,0.500465 -12.084139,-0.776913 0,-0.60838 1.252229,-1.166158 3.044268,-1.356004 1.085759,-0.114997 2.706511,-0.510635 3.601687,-0.87915 1.543777,-0.635529 1.887697,-0.668338 6.679216,-0.637182 5.051633,0.0328 5.051633,0.0328 6.329142,1.453794 2.28822,2.545125 1.20563,3.869543 -3.514131,4.299179 -1.700894,0.154844 -1.951712,0.114244 -2.405919,-0.389375 z M 44.027079,65.53847 c -1.392715,-0.455998 -1.126757,-1.464189 0.622613,-2.360263 0.909252,-0.465742 1.384895,-0.89045 1.443007,-1.288503 0.117845,-0.807158 0.803313,-0.749712 1.190353,0.09975 0.312046,0.684867 0.349549,0.692483 3.001332,0.610352 2.68534,-0.08315 2.68534,-0.08315 3.379361,0.730611 0.381724,0.447582 1.073159,0.946663 1.536529,1.109063 0.463372,0.162416 0.88479,0.512818 0.936503,0.778716 0.10181,0.523696 -0.113572,0.516049 -3.077906,-0.109347 -3.334887,-0.703537 -4.390502,-0.687254 -5.400762,0.08326 -1.00667,0.76783 -2.041987,0.866571 -3.63103,0.346297 z"
       id="the-godfather"
       sodipodi:nodetypes="sssssscssssscscssssssscsccsscssssssssscsssssssssccccsscsscssscsscccssscccsssssccccscsssscsssccccccccssscccccssssccscccsscsscssssscsssscscccsccsssssssssssscscsssssssssccscssccsccsssssssscsccsscssscssccccc" />
  </g>
  <metadata
     id="metadata23604">
    <rdf:RDF>
      <cc:Work
         rdf:about="">
        <cc:license
           rdf:resource="http://creativecommons.org/licenses/by-nc-sa/4.0/" />
        <dc:title>the-godfather.tech</dc:title>
        <dc:creator>
          <cc:Agent>
            <dc:title>Alexandre Rousseau &lt;alexandre@rsseau.fr&gt;</dc:title>
          </cc:Agent>
        </dc:creator>
        <dc:date>2022-03-22</dc:date>
        <dc:description>the-godfather.tech logo</dc:description>
        <dc:publisher>
          <cc:Agent>
            <dc:title>Alexandre Rousseau &lt;alexandre@rsseau.fr&gt;</dc:title>
          </cc:Agent>
        </dc:publisher>
      </cc:Work>
      <cc:License
         rdf:about="http://creativecommons.org/licenses/by-nc-sa/4.0/">
        <cc:permits
           rdf:resource="http://creativecommons.org/ns#Reproduction" />
        <cc:permits
           rdf:resource="http://creativecommons.org/ns#Distribution" />
        <cc:requires
           rdf:resource="http://creativecommons.org/ns#Notice" />
        <cc:requires
           rdf:resource="http://creativecommons.org/ns#Attribution" />
        <cc:prohibits
           rdf:resource="http://creativecommons.org/ns#CommercialUse" />
        <cc:permits
           rdf:resource="http://creativecommons.org/ns#DerivativeWorks" />
        <cc:requires
           rdf:resource="http://creativecommons.org/ns#ShareAlike" />
      </cc:License>
    </rdf:RDF>
  </metadata>
</svg>
